<svg width="1878" height="338" viewBox="0 0 1878 338" fill="none" xmlns="http://www.w3.org/2000/svg">
<rect x="6.30359" y="6.30359" width="324.82" height="324.82" rx="18.1692" stroke="white" stroke-width="12.6072"/>
<path fill-rule="evenodd" clip-rule="evenodd" d="M272.167 71.4606H65.2607V96.6724H272.167V71.4606ZM251.698 116.243H85.6852V141.455H251.698V116.243ZM156.086 161.034H181.298V271.746H156.086V161.034ZM130.876 161.034H105.664V271.746H130.876V161.034ZM206.531 161.034H231.742V271.746H206.531V161.034Z" fill="white"/>
<g clip-path="url(#clip0_1178_6190)">
<path d="M488.459 118.773C459.251 118.773 437.11 135.796 437.11 167.493C437.11 199.19 460.002 218.56 490.807 218.56C513.253 218.56 533.656 205.647 537.601 182.332C544.199 185.267 550.655 188.202 557.417 190.831C553.309 229.267 518.677 242.627 487.731 242.627C443.285 242.603 411.588 210.765 411.588 167.469C411.588 124.174 443.872 95.4349 488.905 95.4349C522.058 95.4349 551.102 110.25 558.004 142.229L537.014 150.306C530.557 128.447 507.806 118.609 488.459 118.609V118.75V118.773Z" fill="white"/>
<path d="M578.548 169.23C578.548 123.446 607.757 94.261 651.757 94.261C695.757 94.261 725.857 123.892 725.857 167.775C725.857 211.657 696.508 242.744 652.344 242.744C608.179 242.744 578.407 213.254 578.407 169.23H578.548ZM651.898 116.989C622.102 116.989 603.178 135.913 603.178 167.164C603.178 198.415 622.102 220.274 652.32 220.274C682.538 220.274 701.462 201.35 701.462 170.099C701.462 138.848 682.092 116.989 651.874 116.989H651.898Z" fill="white"/>
<path d="M877.111 238.048H757.249V99.5438H780.728V215.156H877.111V238.048Z" fill="white"/>
<path d="M885.635 169.23C885.635 123.446 914.82 94.261 958.985 94.261C1003.15 94.261 1033.09 123.892 1033.09 167.775C1033.09 211.657 1003.74 242.744 959.572 242.744C915.407 242.744 885.635 213.254 885.635 169.23ZM958.985 116.989C929.213 116.989 910.265 135.913 910.265 167.164C910.265 198.415 929.19 220.274 959.407 220.274C989.625 220.274 1008.55 201.35 1008.55 170.099C1008.55 138.848 989.179 116.989 958.961 116.989H958.985Z" fill="white"/>
<path d="M1201.64 194.33C1201.64 232.178 1163.21 243.19 1132.54 243.19C1109.2 243.19 1068.42 239.809 1060.51 202.407L1081.33 192.428C1090.14 215.602 1112 218.701 1130.05 218.701C1146.35 218.701 1175.84 215.32 1175.84 196.255C1175.84 160.613 1061.26 200.059 1061.26 140.069C1061.26 107.644 1099.55 94.8715 1130.22 94.8715C1160.88 94.8715 1193.89 105.132 1198.59 136.242L1179.08 144.014C1173.21 123.187 1150.76 116.566 1130.22 116.566C1110.85 116.566 1088.99 124.197 1088.99 137.839C1088.99 170.71 1201.81 135.796 1201.81 194.471L1201.67 194.33H1201.64Z" fill="white"/>
<path d="M1364.66 194.33C1364.66 232.178 1326.08 243.19 1295.56 243.19C1272.24 243.19 1231.44 239.809 1223.52 202.407L1244.35 192.428C1253.16 215.602 1275.01 218.701 1293.07 218.701C1309.36 218.701 1338.85 215.32 1338.85 196.255C1338.85 160.613 1224.28 200.059 1224.28 140.069C1224.28 107.644 1262.57 94.8715 1293.23 94.8715C1323.9 94.8715 1356.91 105.132 1361.61 136.242L1342.09 144.014C1336.22 123.187 1313.78 116.566 1293.23 116.566C1273.86 116.566 1252 124.197 1252 137.839C1252 170.71 1364.82 135.796 1364.82 194.471L1364.68 194.33H1364.66Z" fill="white"/>
<path d="M1524.27 238.048H1394.71V99.5438H1520.3V122.882H1418.05V155.002H1503V178.763H1418.05V215.156H1524.27V238.048Z" fill="white"/>
<path d="M1550.85 186.84V99.5438H1574.33V181.416C1574.33 205.764 1588.42 219.265 1618.05 219.265C1647.68 219.265 1661.77 205.764 1661.77 181.416V99.5438H1685.25V186.84C1685.25 220.298 1660 243.026 1618.05 243.026C1576.09 243.026 1550.85 220.274 1550.85 186.84Z" fill="white"/>
<path d="M1799.24 196.819L1847.96 99.5438H1877.73V238.048H1854.25V141.36C1844.72 159.252 1814.5 220.298 1804.94 238.189H1793.65L1744.51 141.36V237.907H1721.03V99.5438H1750.66C1760.19 117.881 1789.99 178.622 1799.38 196.819H1799.24Z" fill="white"/>
</g>
<defs>
<clipPath id="clip0_1178_6190">
<rect width="1466.14" height="148.906" fill="white" transform="translate(411.588 94.261)"/>
</clipPath>
</defs>
</svg>
